<?xml version="1.0" standalone="no"?>
<!DOCTYPE svg PUBLIC "-//W3C//DTD SVG 20010904//EN"
 "http://www.w3.org/TR/2001/REC-SVG-20010904/DTD/svg10.dtd">
<svg version="1.0" xmlns="http://www.w3.org/2000/svg"
 width="1525.000000pt" height="700.000000pt" viewBox="0 0 1525.000000 700.000000"
 preserveAspectRatio="xMidYMid meet">

<g transform="translate(0.000000,700.000000) scale(0.100000,-0.100000)"
fill="#000000" stroke="none">
<path d="M11683 6981 c-146 -38 -254 -185 -240 -331 11 -127 -59 -48 1333
-1498 l1283 -1337 -6907 -5 -6907 -5 -57 -28 c-64 -32 -106 -75 -145 -150 -36
-70 -39 -188 -7 -258 30 -64 88 -125 148 -157 l51 -27 6914 -5 6914 -5 -1273
-1325 c-700 -729 -1283 -1341 -1296 -1360 -13 -19 -31 -64 -40 -99 -71 -279
254 -497 489 -329 35 25 1570 1620 3263 3388 l43 45 -332 345 c-183 190 -925
962 -1649 1716 -1451 1512 -1358 1422 -1490 1430 -35 2 -77 -1 -95 -5z"/>
</g>
</svg>
