<?xml version="1.0" encoding="UTF-8"?>
<svg id="_레이어_2" data-name="레이어 2" fill="#3D2E35" xmlns="http://www.w3.org/2000/svg" viewBox="0 0 766.76 85.05">
  <g id="_레이어_1-2" data-name="레이어 1">
    <path d="M40.17,17.32v66.32h-17.91V17.32H0V1.41h62.43v15.9h-22.26Z"/>
    <path d="M104.73,85.05c-5.42,0-10.37-.9-14.84-2.71s-8.29-4.49-11.43-8.07c-3.14-3.57-5.58-8.01-7.3-13.31-1.73-5.3-2.59-11.44-2.59-18.44s.86-13.13,2.59-18.44c1.73-5.3,4.16-9.74,7.3-13.31,3.14-3.57,6.95-6.26,11.43-8.07,4.48-1.81,9.42-2.71,14.84-2.71s10.37.9,14.84,2.71c4.48,1.81,8.28,4.5,11.43,8.07,3.14,3.57,5.58,8.01,7.3,13.31,1.73,5.3,2.59,11.45,2.59,18.44s-.87,13.13-2.59,18.44c-1.73,5.3-4.16,9.74-7.3,13.31-3.14,3.57-6.95,6.26-11.43,8.07s-9.42,2.71-14.84,2.71ZM104.73,69.15c5.42,0,9.64-1.77,12.66-5.3,3.02-3.53,4.54-8.6,4.54-15.2v-12.25c0-6.6-1.51-11.66-4.54-15.2-3.02-3.53-7.24-5.3-12.66-5.3s-9.64,1.77-12.66,5.3c-3.02,3.53-4.54,8.6-4.54,15.2v12.25c0,6.6,1.51,11.66,4.54,15.2,3.02,3.53,7.24,5.3,12.66,5.3Z"/>
    <path d="M180.94,44.76l-7.89-16.49h-.35v55.37h-16.85V1.41h19.55l22.5,38.87,7.89,16.49h.35V1.41h16.85v82.22h-19.55l-22.5-38.87Z"/>
    <path d="M241.14,83.64V1.41h55.96v15.9h-38.05v16.73h32.63v15.9h-32.63v17.79h38.05v15.9h-55.96Z"/>
    <path d="M374.13,29.69h-.35l-6.01,12.02-16.02,29.1-15.67-28.98-6.24-12.96h-.35v54.78h-16.85V1.41h18.97l20.14,38.52h.24L371.89,1.41h19.08v82.22h-16.84V29.69Z"/>
    <path d="M405.94,83.64v-14.25h10.6V15.67h-10.6V1.41h39.11v14.25h-10.6v53.72h10.6v14.25h-39.11Z"/>
    <path d="M477.91,83.64h-17.91V1.41h38.99c3.77,0,7.19.63,10.25,1.88,3.06,1.26,5.67,3.04,7.83,5.36,2.16,2.32,3.83,5.09,5.01,8.31,1.18,3.22,1.77,6.79,1.77,10.72,0,5.58-1.24,10.45-3.71,14.61-2.47,4.16-6.23,7.19-11.25,9.07l16.14,32.28h-19.91l-14.37-30.16h-12.84v30.16ZM496.76,38.4c2.67,0,4.77-.69,6.3-2.06,1.53-1.37,2.3-3.4,2.3-6.07v-5.18c0-2.67-.77-4.69-2.3-6.07-1.53-1.37-3.63-2.06-6.3-2.06h-18.85v21.44h18.85Z"/>
    <path d="M557.31,83.64h-17.91V1.41h38.99c3.77,0,7.19.63,10.25,1.88,3.06,1.26,5.67,3.04,7.83,5.36,2.16,2.32,3.83,5.09,5.01,8.31,1.18,3.22,1.77,6.79,1.77,10.72,0,5.58-1.24,10.45-3.71,14.61-2.47,4.16-6.23,7.19-11.25,9.07l16.14,32.28h-19.91l-14.37-30.16h-12.84v30.16ZM576.16,38.4c2.67,0,4.77-.69,6.3-2.06,1.53-1.37,2.3-3.4,2.3-6.07v-5.18c0-2.67-.77-4.69-2.3-6.07-1.53-1.37-3.63-2.06-6.3-2.06h-18.85v21.44h18.85Z"/>
    <path d="M650.61,85.05c-5.42,0-10.37-.9-14.84-2.71s-8.29-4.49-11.43-8.07c-3.14-3.57-5.58-8.01-7.3-13.31-1.73-5.3-2.59-11.44-2.59-18.44s.86-13.13,2.59-18.44c1.73-5.3,4.16-9.74,7.3-13.31,3.14-3.57,6.95-6.26,11.43-8.07,4.48-1.81,9.42-2.71,14.84-2.71s10.37.9,14.84,2.71c4.48,1.81,8.28,4.5,11.43,8.07,3.14,3.57,5.58,8.01,7.3,13.31,1.73,5.3,2.59,11.45,2.59,18.44s-.87,13.13-2.59,18.44c-1.73,5.3-4.16,9.74-7.3,13.31-3.14,3.57-6.95,6.26-11.43,8.07s-9.42,2.71-14.84,2.71ZM650.61,69.15c5.42,0,9.64-1.77,12.66-5.3,3.02-3.53,4.54-8.6,4.54-15.2v-12.25c0-6.6-1.51-11.66-4.54-15.2-3.02-3.53-7.24-5.3-12.66-5.3s-9.64,1.77-12.66,5.3c-3.02,3.53-4.54,8.6-4.54,15.2v12.25c0,6.6,1.51,11.66,4.54,15.2,3.02,3.53,7.24,5.3,12.66,5.3Z"/>
    <path d="M719.64,83.64h-17.91V1.41h38.99c3.77,0,7.19.63,10.25,1.88,3.06,1.26,5.67,3.04,7.83,5.36,2.16,2.32,3.83,5.09,5.01,8.31,1.18,3.22,1.77,6.79,1.77,10.72,0,5.58-1.24,10.45-3.71,14.61-2.47,4.16-6.23,7.19-11.25,9.07l16.14,32.28h-19.91l-14.37-30.16h-12.84v30.16ZM738.48,38.4c2.67,0,4.77-.69,6.3-2.06,1.53-1.37,2.3-3.4,2.3-6.07v-5.18c0-2.67-.77-4.69-2.3-6.07-1.53-1.37-3.63-2.06-6.3-2.06h-18.85v21.44h18.85Z"/>
  </g>
</svg>